<svg width="298" height="261" viewBox="0 0 298 261" fill="none" xmlns="http://www.w3.org/2000/svg">
<rect x="0.5" y="0.5" width="297" height="260" rx="50.5" fill="white" stroke="white"/>
<path d="M165.454 110.5L174.115 125.5C181.428 138.167 172.286 154 157.66 154H140.34C125.714 154 116.572 138.167 123.885 125.5L132.546 110.5C139.859 97.8333 158.141 97.8333 165.454 110.5Z" fill="white" stroke="#728FCE" stroke-width="2"/>
<circle cx="148.5" cy="95.5" r="21.5" fill="#728FCE" stroke="#728FCE" stroke-width="2"/>
<path d="M86.6506 185H85.358L89.0966 174.818H90.3693L94.108 185H92.8153L89.7727 176.429H89.6932L86.6506 185ZM87.1278 181.023H92.3381V182.116H87.1278V181.023ZM94.8189 187.466V183.906H95.4751C95.7005 183.701 95.9126 183.411 96.1115 183.036C96.3137 182.658 96.4844 182.155 96.6236 181.525C96.7661 180.892 96.8606 180.088 96.907 179.114L97.1257 174.818H103.171V183.906H104.344V187.446H103.171V185H95.9922V187.466H94.8189ZM96.9467 183.906H101.998V175.912H98.2393L98.0803 179.114C98.0405 179.856 97.9709 180.529 97.8714 181.132C97.772 181.732 97.6444 182.264 97.4886 182.728C97.3329 183.189 97.1522 183.581 96.9467 183.906ZM106.208 174.818H107.679L111.139 183.27H111.259L114.719 174.818H116.191V185H115.037V177.264H114.938L111.756 185H110.642L107.46 177.264H107.361V185H106.208V174.818ZM118.663 174.818H119.876V182.832H119.975L125.543 174.818H126.737V185H125.504V177.006H125.404L119.856 185H118.663V174.818ZM129.204 185V174.818H130.437V179.352H135.866V174.818H137.099V185H135.866V180.446H130.437V185H129.204ZM139.567 174.818H140.78V182.832H140.879L146.448 174.818H147.641V185H146.408V177.006H146.308L140.76 185H139.567V174.818ZM158.301 178H157.068C156.995 177.645 156.868 177.334 156.685 177.065C156.506 176.797 156.288 176.571 156.029 176.389C155.774 176.204 155.491 176.064 155.179 175.972C154.867 175.879 154.543 175.832 154.205 175.832C153.588 175.832 153.03 175.988 152.529 176.3C152.032 176.611 151.636 177.07 151.341 177.677C151.049 178.283 150.903 179.027 150.903 179.909C150.903 180.791 151.049 181.535 151.341 182.141C151.636 182.748 152.032 183.207 152.529 183.518C153.03 183.83 153.588 183.986 154.205 183.986C154.543 183.986 154.867 183.939 155.179 183.847C155.491 183.754 155.774 183.616 156.029 183.434C156.288 183.248 156.506 183.021 156.685 182.753C156.868 182.481 156.995 182.17 157.068 181.818H158.301C158.208 182.339 158.039 182.804 157.794 183.215C157.549 183.626 157.244 183.976 156.879 184.264C156.515 184.549 156.105 184.766 155.651 184.915C155.201 185.065 154.718 185.139 154.205 185.139C153.336 185.139 152.564 184.927 151.888 184.503C151.212 184.079 150.68 183.475 150.292 182.693C149.904 181.911 149.71 180.983 149.71 179.909C149.71 178.835 149.904 177.907 150.292 177.125C150.68 176.343 151.212 175.74 151.888 175.315C152.564 174.891 153.336 174.679 154.205 174.679C154.718 174.679 155.201 174.754 155.651 174.903C156.105 175.052 156.515 175.271 156.879 175.559C157.244 175.844 157.549 176.192 157.794 176.603C158.039 177.011 158.208 177.476 158.301 178ZM159.737 175.912V174.818H167.373V175.912H164.171V185H162.938V175.912H159.737ZM169.276 185V174.818H172.716C173.515 174.818 174.168 174.962 174.675 175.251C175.185 175.536 175.563 175.922 175.809 176.409C176.054 176.896 176.176 177.44 176.176 178.04C176.176 178.64 176.054 179.185 175.809 179.675C175.567 180.166 175.192 180.557 174.685 180.849C174.178 181.137 173.528 181.281 172.736 181.281H170.27V180.188H172.696C173.243 180.188 173.682 180.093 174.014 179.904C174.345 179.715 174.586 179.46 174.735 179.138C174.887 178.814 174.963 178.447 174.963 178.04C174.963 177.632 174.887 177.268 174.735 176.946C174.586 176.625 174.344 176.373 174.009 176.19C173.674 176.005 173.23 175.912 172.676 175.912H170.509V185H169.276ZM177.541 185H176.249L179.987 174.818H181.26L184.999 185H183.706L180.663 176.429H180.584L177.541 185ZM178.018 181.023H183.229V182.116H178.018V181.023ZM184.838 175.912V174.818H192.475V175.912H189.273V185H188.04V175.912H184.838ZM202.545 179.909C202.545 180.983 202.351 181.911 201.963 182.693C201.575 183.475 201.043 184.079 200.367 184.503C199.691 184.927 198.919 185.139 198.05 185.139C197.182 185.139 196.41 184.927 195.733 184.503C195.057 184.079 194.525 183.475 194.138 182.693C193.75 181.911 193.556 180.983 193.556 179.909C193.556 178.835 193.75 177.907 194.138 177.125C194.525 176.343 195.057 175.74 195.733 175.315C196.41 174.891 197.182 174.679 198.05 174.679C198.919 174.679 199.691 174.891 200.367 175.315C201.043 175.74 201.575 176.343 201.963 177.125C202.351 177.907 202.545 178.835 202.545 179.909ZM201.351 179.909C201.351 179.027 201.204 178.283 200.909 177.677C200.617 177.07 200.221 176.611 199.721 176.3C199.224 175.988 198.667 175.832 198.05 175.832C197.434 175.832 196.875 175.988 196.375 176.3C195.878 176.611 195.482 177.07 195.187 177.677C194.895 178.283 194.749 179.027 194.749 179.909C194.749 180.791 194.895 181.535 195.187 182.141C195.482 182.748 195.878 183.207 196.375 183.518C196.875 183.83 197.434 183.986 198.05 183.986C198.667 183.986 199.224 183.83 199.721 183.518C200.221 183.207 200.617 182.748 200.909 182.141C201.204 181.535 201.351 180.791 201.351 179.909ZM204.618 185V174.818H208.058C208.857 174.818 209.51 174.962 210.017 175.251C210.527 175.536 210.905 175.922 211.15 176.409C211.396 176.896 211.518 177.44 211.518 178.04C211.518 178.64 211.396 179.185 211.15 179.675C210.908 180.166 210.534 180.557 210.027 180.849C209.52 181.137 208.87 181.281 208.078 181.281H205.612V180.188H208.038C208.585 180.188 209.024 180.093 209.356 179.904C209.687 179.715 209.927 179.46 210.077 179.138C210.229 178.814 210.305 178.447 210.305 178.04C210.305 177.632 210.229 177.268 210.077 176.946C209.927 176.625 209.685 176.373 209.351 176.19C209.016 176.005 208.572 175.912 208.018 175.912H205.851V185H204.618Z" fill="#728FCE"/>
</svg>
