<svg width="298" height="261" viewBox="0 0 298 261" fill="none" xmlns="http://www.w3.org/2000/svg">
<path d="M51 0.5H247C274.89 0.5 297.5 23.1096 297.5 51V210C297.5 237.89 274.89 260.5 247 260.5H51C23.1096 260.5 0.5 237.89 0.5 210V51C0.5 23.1096 23.1096 0.5 51 0.5Z" fill="white" stroke="white"/>
<path d="M165.958 110.825L174.772 126.1C182.082 138.766 172.94 154.596 158.316 154.596H140.687C126.063 154.596 116.921 138.766 124.231 126.1L133.045 110.825C140.357 98.1542 158.646 98.1542 165.958 110.825Z" fill="#728FCE" stroke="#728FCE" stroke-width="2"/>
<path d="M170.576 95.8673C170.576 107.79 160.916 117.454 149 117.454C137.085 117.454 127.424 107.79 127.424 95.8673C127.424 83.9449 137.085 74.2808 149 74.2808C160.916 74.2808 170.576 83.9449 170.576 95.8673Z" fill="white" stroke="#728FCE" stroke-width="2"/>
<path d="M101.159 175.476V185.658H99.9263V176.57H94.7956V185.658H93.5627V175.476H101.159ZM112.237 180.567C112.237 181.641 112.043 182.569 111.656 183.351C111.268 184.133 110.736 184.736 110.06 185.161C109.384 185.585 108.611 185.797 107.743 185.797C106.875 185.797 106.102 185.585 105.426 185.161C104.75 184.736 104.218 184.133 103.83 183.351C103.442 182.569 103.249 181.641 103.249 180.567C103.249 179.493 103.442 178.565 103.83 177.783C104.218 177.001 104.75 176.397 105.426 175.973C106.102 175.549 106.875 175.337 107.743 175.337C108.611 175.337 109.384 175.549 110.06 175.973C110.736 176.397 111.268 177.001 111.656 177.783C112.043 178.565 112.237 179.493 112.237 180.567ZM111.044 180.567C111.044 179.685 110.897 178.941 110.602 178.335C110.31 177.728 109.914 177.269 109.413 176.957C108.916 176.646 108.359 176.49 107.743 176.49C107.126 176.49 106.568 176.646 106.067 176.957C105.57 177.269 105.174 177.728 104.879 178.335C104.588 178.941 104.442 179.685 104.442 180.567C104.442 181.448 104.588 182.193 104.879 182.799C105.174 183.406 105.57 183.865 106.067 184.176C106.568 184.488 107.126 184.643 107.743 184.643C108.359 184.643 108.916 184.488 109.413 184.176C109.914 183.865 110.31 183.406 110.602 182.799C110.897 182.193 111.044 181.448 111.044 180.567ZM113.435 185.658V184.524H113.734C114.158 184.524 114.488 184.388 114.723 184.117C114.958 183.845 115.127 183.406 115.23 182.799C115.336 182.193 115.407 181.389 115.444 180.388L115.623 175.476H121.827V185.658H120.594V176.57H116.796L116.637 180.626C116.597 181.694 116.5 182.602 116.344 183.351C116.188 184.1 115.915 184.672 115.523 185.066C115.132 185.46 114.562 185.658 113.813 185.658H113.435ZM125.206 179.751H128.109C128.838 179.751 129.453 179.871 129.953 180.109C130.457 180.348 130.838 180.684 131.097 181.119C131.359 181.553 131.49 182.065 131.49 182.655C131.49 183.245 131.359 183.765 131.097 184.216C130.838 184.667 130.457 185.02 129.953 185.275C129.453 185.53 128.838 185.658 128.109 185.658H124.291V175.476H125.524V184.584H128.109C128.573 184.584 128.966 184.491 129.287 184.305C129.612 184.117 129.857 183.875 130.023 183.58C130.192 183.281 130.277 182.966 130.277 182.635C130.277 182.148 130.089 181.728 129.715 181.377C129.34 181.023 128.805 180.845 128.109 180.845H125.206V179.751ZM136.699 185.797C136.042 185.797 135.457 185.684 134.944 185.459C134.433 185.233 134.027 184.92 133.726 184.519C133.427 184.115 133.265 183.646 133.238 183.112H134.491C134.518 183.44 134.63 183.724 134.829 183.962C135.028 184.198 135.288 184.38 135.61 184.509C135.931 184.639 136.288 184.703 136.679 184.703C137.116 184.703 137.504 184.627 137.842 184.474C138.18 184.322 138.445 184.11 138.638 183.838C138.83 183.566 138.926 183.251 138.926 182.893C138.926 182.519 138.833 182.189 138.648 181.904C138.462 181.616 138.19 181.39 137.832 181.228C137.474 181.066 137.037 180.984 136.52 180.984H135.704V179.891H136.52C136.924 179.891 137.279 179.818 137.584 179.672C137.892 179.526 138.132 179.321 138.304 179.055C138.48 178.79 138.568 178.479 138.568 178.121C138.568 177.776 138.492 177.476 138.339 177.221C138.187 176.966 137.971 176.767 137.693 176.624C137.418 176.482 137.093 176.411 136.719 176.411C136.367 176.411 136.036 176.475 135.724 176.604C135.416 176.73 135.164 176.914 134.969 177.156C134.773 177.395 134.667 177.683 134.65 178.021H133.457C133.477 177.488 133.638 177.02 133.939 176.619C134.241 176.215 134.635 175.9 135.123 175.675C135.613 175.449 136.152 175.337 136.738 175.337C137.368 175.337 137.908 175.464 138.359 175.719C138.81 175.971 139.156 176.304 139.398 176.719C139.64 177.133 139.761 177.581 139.761 178.061C139.761 178.634 139.61 179.123 139.309 179.528C139.01 179.932 138.604 180.212 138.091 180.368V180.447C138.734 180.554 139.236 180.827 139.597 181.268C139.958 181.705 140.139 182.247 140.139 182.893C140.139 183.447 139.988 183.944 139.687 184.385C139.388 184.822 138.981 185.167 138.464 185.419C137.947 185.671 137.358 185.797 136.699 185.797ZM150.942 180.567C150.942 181.641 150.748 182.569 150.361 183.351C149.973 184.133 149.441 184.736 148.765 185.161C148.089 185.585 147.316 185.797 146.448 185.797C145.58 185.797 144.807 185.585 144.131 185.161C143.455 184.736 142.923 184.133 142.535 183.351C142.148 182.569 141.954 181.641 141.954 180.567C141.954 179.493 142.148 178.565 142.535 177.783C142.923 177.001 143.455 176.397 144.131 175.973C144.807 175.549 145.58 175.337 146.448 175.337C147.316 175.337 148.089 175.549 148.765 175.973C149.441 176.397 149.973 177.001 150.361 177.783C150.748 178.565 150.942 179.493 150.942 180.567ZM149.749 180.567C149.749 179.685 149.602 178.941 149.307 178.335C149.015 177.728 148.619 177.269 148.118 176.957C147.621 176.646 147.064 176.49 146.448 176.49C145.831 176.49 145.273 176.646 144.773 176.957C144.275 177.269 143.879 177.728 143.584 178.335C143.293 178.941 143.147 179.685 143.147 180.567C143.147 181.448 143.293 182.193 143.584 182.799C143.879 183.406 144.275 183.865 144.773 184.176C145.273 184.488 145.831 184.643 146.448 184.643C147.064 184.643 147.621 184.488 148.118 184.176C148.619 183.865 149.015 183.406 149.307 182.799C149.602 182.193 149.749 181.448 149.749 180.567ZM153.015 185.658V175.476H156.575C157.284 175.476 157.869 175.599 158.33 175.844C158.791 176.086 159.134 176.412 159.359 176.823C159.585 177.231 159.697 177.683 159.697 178.18C159.697 178.618 159.619 178.979 159.464 179.264C159.311 179.549 159.109 179.775 158.857 179.94C158.608 180.106 158.338 180.229 158.047 180.308V180.408C158.358 180.428 158.671 180.537 158.986 180.736C159.301 180.935 159.565 181.22 159.777 181.591C159.989 181.962 160.095 182.416 160.095 182.953C160.095 183.464 159.979 183.923 159.747 184.33C159.515 184.738 159.149 185.061 158.648 185.3C158.148 185.538 157.496 185.658 156.694 185.658H153.015ZM154.248 184.564H156.694C157.5 184.564 158.072 184.408 158.41 184.097C158.751 183.782 158.922 183.401 158.922 182.953C158.922 182.608 158.834 182.29 158.658 181.999C158.483 181.704 158.232 181.468 157.907 181.293C157.583 181.114 157.198 181.024 156.754 181.024H154.248V184.564ZM154.248 179.95H156.535C156.907 179.95 157.241 179.877 157.54 179.732C157.841 179.586 158.08 179.38 158.255 179.115C158.434 178.85 158.524 178.538 158.524 178.18C158.524 177.733 158.368 177.353 158.057 177.042C157.745 176.727 157.251 176.57 156.575 176.57H154.248V179.95ZM162.539 185.658H161.246L164.985 175.476H166.257L169.996 185.658H168.703L165.661 177.087H165.581L162.539 185.658ZM163.016 181.68H168.226V182.774H163.016V181.68ZM169.836 176.57V175.476H177.472V176.57H174.27V185.658H173.037V176.57H169.836ZM179.375 185.658V175.476H185.52V176.57H180.608V180.01H185.202V181.104H180.608V184.564H185.599V185.658H179.375ZM186.867 185.658V184.524H187.165C187.59 184.524 187.919 184.388 188.155 184.117C188.39 183.845 188.559 183.406 188.662 182.799C188.768 182.193 188.839 181.389 188.876 180.388L189.054 175.476H195.259V185.658H194.026V176.57H190.228L190.069 180.626C190.029 181.694 189.931 182.602 189.775 183.351C189.62 184.1 189.346 184.672 188.955 185.066C188.564 185.46 187.994 185.658 187.245 185.658H186.867ZM198.637 179.751H201.541C202.27 179.751 202.885 179.871 203.385 180.109C203.889 180.348 204.27 180.684 204.529 181.119C204.79 181.553 204.921 182.065 204.921 182.655C204.921 183.245 204.79 183.765 204.529 184.216C204.27 184.667 203.889 185.02 203.385 185.275C202.885 185.53 202.27 185.658 201.541 185.658H197.722V175.476H198.955V184.584H201.541C202.005 184.584 202.397 184.491 202.719 184.305C203.044 184.117 203.289 183.875 203.455 183.58C203.624 183.281 203.708 182.966 203.708 182.635C203.708 182.148 203.521 181.728 203.146 181.377C202.772 181.023 202.237 180.845 201.541 180.845H198.637V179.751Z" fill="#728FCE"/>
</svg>
