<svg width="298" height="261" viewBox="0 0 298 261" fill="none" xmlns="http://www.w3.org/2000/svg">
<rect x="1" y="1" width="296" height="259" rx="50.5" fill="#728FCE" stroke="white"/>
<path d="M133.046 111C140.359 98.3333 158.641 98.3333 165.954 111L174.615 126C181.928 138.667 172.786 154.5 158.16 154.5H140.84C126.214 154.5 117.072 138.667 124.385 126L133.046 111Z" fill="white" stroke="white" stroke-width="2"/>
<circle cx="149" cy="96" r="21.5" fill="#728FCE" stroke="white" stroke-width="2"/>
<path d="M101.349 175.318V185.5H100.116V176.412H94.9858V185.5H93.7528V175.318H101.349ZM112.427 180.409C112.427 181.483 112.233 182.411 111.846 183.193C111.458 183.975 110.926 184.579 110.25 185.003C109.574 185.427 108.801 185.639 107.933 185.639C107.065 185.639 106.292 185.427 105.616 185.003C104.94 184.579 104.408 183.975 104.02 183.193C103.633 182.411 103.439 181.483 103.439 180.409C103.439 179.335 103.633 178.407 104.02 177.625C104.408 176.843 104.94 176.24 105.616 175.815C106.292 175.391 107.065 175.179 107.933 175.179C108.801 175.179 109.574 175.391 110.25 175.815C110.926 176.24 111.458 176.843 111.846 177.625C112.233 178.407 112.427 179.335 112.427 180.409ZM111.234 180.409C111.234 179.527 111.087 178.783 110.792 178.177C110.5 177.57 110.104 177.111 109.604 176.8C109.106 176.488 108.55 176.332 107.933 176.332C107.317 176.332 106.758 176.488 106.258 176.8C105.76 177.111 105.364 177.57 105.069 178.177C104.778 178.783 104.632 179.527 104.632 180.409C104.632 181.291 104.778 182.035 105.069 182.641C105.364 183.248 105.76 183.707 106.258 184.018C106.758 184.33 107.317 184.486 107.933 184.486C108.55 184.486 109.106 184.33 109.604 184.018C110.104 183.707 110.5 183.248 110.792 182.641C111.087 182.035 111.234 181.291 111.234 180.409ZM113.626 185.5V184.366H113.924C114.348 184.366 114.678 184.231 114.913 183.959C115.148 183.687 115.318 183.248 115.42 182.641C115.526 182.035 115.598 181.231 115.634 180.23L115.813 175.318H122.018V185.5H120.785V176.412H116.986L116.827 180.469C116.787 181.536 116.69 182.444 116.534 183.193C116.378 183.942 116.105 184.514 115.714 184.908C115.323 185.303 114.752 185.5 114.003 185.5H113.626ZM125.396 179.594H128.299C129.028 179.594 129.643 179.713 130.144 179.952C130.647 180.19 131.029 180.527 131.287 180.961C131.549 181.395 131.68 181.907 131.68 182.497C131.68 183.087 131.549 183.607 131.287 184.058C131.029 184.509 130.647 184.862 130.144 185.117C129.643 185.372 129.028 185.5 128.299 185.5H124.481V175.318H125.714V184.426H128.299C128.763 184.426 129.156 184.333 129.477 184.148C129.802 183.959 130.048 183.717 130.213 183.422C130.382 183.124 130.467 182.809 130.467 182.477C130.467 181.99 130.28 181.571 129.905 181.219C129.53 180.865 128.995 180.688 128.299 180.688H125.396V179.594ZM136.889 185.639C136.233 185.639 135.648 185.527 135.134 185.301C134.623 185.076 134.217 184.763 133.916 184.362C133.618 183.957 133.455 183.488 133.429 182.955H134.681C134.708 183.283 134.821 183.566 135.02 183.805C135.218 184.04 135.479 184.222 135.8 184.352C136.122 184.481 136.478 184.545 136.869 184.545C137.306 184.545 137.694 184.469 138.032 184.317C138.37 184.164 138.636 183.952 138.828 183.68C139.02 183.409 139.116 183.094 139.116 182.736C139.116 182.361 139.023 182.031 138.838 181.746C138.652 181.458 138.38 181.233 138.022 181.07C137.664 180.908 137.227 180.827 136.71 180.827H135.895V179.733H136.71C137.114 179.733 137.469 179.66 137.774 179.514C138.082 179.368 138.322 179.163 138.495 178.898C138.67 178.633 138.758 178.321 138.758 177.963C138.758 177.618 138.682 177.318 138.529 177.063C138.377 176.808 138.162 176.609 137.883 176.467C137.608 176.324 137.283 176.253 136.909 176.253C136.557 176.253 136.226 176.317 135.914 176.447C135.606 176.573 135.354 176.757 135.159 176.999C134.963 177.237 134.857 177.526 134.841 177.864H133.647C133.667 177.33 133.828 176.863 134.13 176.462C134.431 176.057 134.826 175.742 135.313 175.517C135.803 175.292 136.342 175.179 136.929 175.179C137.558 175.179 138.099 175.307 138.549 175.562C139 175.814 139.346 176.147 139.588 176.561C139.83 176.975 139.951 177.423 139.951 177.903C139.951 178.477 139.801 178.966 139.499 179.37C139.201 179.774 138.795 180.054 138.281 180.21V180.29C138.924 180.396 139.426 180.669 139.787 181.11C140.149 181.548 140.329 182.089 140.329 182.736C140.329 183.289 140.178 183.786 139.877 184.227C139.578 184.665 139.171 185.009 138.654 185.261C138.137 185.513 137.548 185.639 136.889 185.639ZM151.132 180.409C151.132 181.483 150.939 182.411 150.551 183.193C150.163 183.975 149.631 184.579 148.955 185.003C148.279 185.427 147.507 185.639 146.638 185.639C145.77 185.639 144.998 185.427 144.321 185.003C143.645 184.579 143.113 183.975 142.725 183.193C142.338 182.411 142.144 181.483 142.144 180.409C142.144 179.335 142.338 178.407 142.725 177.625C143.113 176.843 143.645 176.24 144.321 175.815C144.998 175.391 145.77 175.179 146.638 175.179C147.507 175.179 148.279 175.391 148.955 175.815C149.631 176.24 150.163 176.843 150.551 177.625C150.939 178.407 151.132 179.335 151.132 180.409ZM149.939 180.409C149.939 179.527 149.792 178.783 149.497 178.177C149.205 177.57 148.809 177.111 148.309 176.8C147.811 176.488 147.255 176.332 146.638 176.332C146.022 176.332 145.463 176.488 144.963 176.8C144.466 177.111 144.069 177.57 143.775 178.177C143.483 178.783 143.337 179.527 143.337 180.409C143.337 181.291 143.483 182.035 143.775 182.641C144.069 183.248 144.466 183.707 144.963 184.018C145.463 184.33 146.022 184.486 146.638 184.486C147.255 184.486 147.811 184.33 148.309 184.018C148.809 183.707 149.205 183.248 149.497 182.641C149.792 182.035 149.939 181.291 149.939 180.409ZM153.206 185.5V175.318H156.765C157.475 175.318 158.06 175.441 158.52 175.686C158.981 175.928 159.324 176.254 159.549 176.665C159.775 177.073 159.887 177.526 159.887 178.023C159.887 178.46 159.81 178.821 159.654 179.107C159.501 179.392 159.299 179.617 159.047 179.783C158.799 179.948 158.529 180.071 158.237 180.151V180.25C158.548 180.27 158.862 180.379 159.176 180.578C159.491 180.777 159.755 181.062 159.967 181.433C160.179 181.804 160.285 182.259 160.285 182.795C160.285 183.306 160.169 183.765 159.937 184.173C159.705 184.58 159.339 184.903 158.838 185.142C158.338 185.381 157.687 185.5 156.885 185.5H153.206ZM154.439 184.406H156.885C157.69 184.406 158.262 184.25 158.6 183.939C158.941 183.624 159.112 183.243 159.112 182.795C159.112 182.451 159.024 182.133 158.848 181.841C158.673 181.546 158.422 181.311 158.098 181.135C157.773 180.956 157.388 180.866 156.944 180.866H154.439V184.406ZM154.439 179.793H156.725C157.097 179.793 157.431 179.72 157.73 179.574C158.031 179.428 158.27 179.223 158.446 178.957C158.625 178.692 158.714 178.381 158.714 178.023C158.714 177.575 158.558 177.196 158.247 176.884C157.935 176.569 157.441 176.412 156.765 176.412H154.439V179.793ZM162.729 185.5H161.436L165.175 175.318H166.447L170.186 185.5H168.893L165.851 176.929H165.771L162.729 185.5ZM163.206 181.523H168.416V182.616H163.206V181.523ZM170.026 176.412V175.318H177.662V176.412H174.46V185.5H173.227V176.412H170.026ZM179.565 185.5V175.318H185.71V176.412H180.798V179.852H185.392V180.946H180.798V184.406H185.789V185.5H179.565ZM187.057 185.5V184.366H187.355C187.78 184.366 188.109 184.231 188.345 183.959C188.58 183.687 188.749 183.248 188.852 182.641C188.958 182.035 189.029 181.231 189.066 180.23L189.245 175.318H195.449V185.5H194.216V176.412H190.418L190.259 180.469C190.219 181.536 190.121 182.444 189.966 183.193C189.81 183.942 189.536 184.514 189.145 184.908C188.754 185.303 188.184 185.5 187.435 185.5H187.057ZM198.827 179.594H201.731C202.46 179.594 203.075 179.713 203.575 179.952C204.079 180.19 204.46 180.527 204.719 180.961C204.981 181.395 205.112 181.907 205.112 182.497C205.112 183.087 204.981 183.607 204.719 184.058C204.46 184.509 204.079 184.862 203.575 185.117C203.075 185.372 202.46 185.5 201.731 185.5H197.913V175.318H199.146V184.426H201.731C202.195 184.426 202.588 184.333 202.909 184.148C203.234 183.959 203.479 183.717 203.645 183.422C203.814 183.124 203.898 182.809 203.898 182.477C203.898 181.99 203.711 181.571 203.337 181.219C202.962 180.865 202.427 180.688 201.731 180.688H198.827V179.594Z" fill="white"/>
</svg>
