<svg width="298" height="261" viewBox="0 0 298 261" fill="none" xmlns="http://www.w3.org/2000/svg">
<rect x="1" y="1" width="296" height="259" rx="50.5" fill="#728FCE" stroke="white"/>
<path d="M133.046 111C140.359 98.3333 158.641 98.3333 165.954 111L174.615 126C181.928 138.667 172.786 154.5 158.16 154.5H140.84C126.214 154.5 117.072 138.667 124.385 126L133.046 111Z" fill="#728FCE" stroke="white" stroke-width="2"/>
<circle cx="149" cy="96" r="21.5" fill="white" stroke="white" stroke-width="2"/>
<path d="M87.1506 185.5H85.858L89.5966 175.318H90.8693L94.608 185.5H93.3153L90.2727 176.929H90.1932L87.1506 185.5ZM87.6278 181.523H92.8381V182.616H87.6278V181.523ZM95.3189 187.966V184.406H95.9751C96.2005 184.201 96.4126 183.911 96.6115 183.536C96.8137 183.158 96.9844 182.655 97.1236 182.025C97.2661 181.392 97.3606 180.588 97.407 179.614L97.6257 175.318H103.671V184.406H104.844V187.946H103.671V185.5H96.4922V187.966H95.3189ZM97.4467 184.406H102.498V176.412H98.7393L98.5803 179.614C98.5405 180.356 98.4709 181.029 98.3714 181.632C98.272 182.232 98.1444 182.764 97.9886 183.228C97.8329 183.689 97.6522 184.081 97.4467 184.406ZM106.708 175.318H108.179L111.639 183.77H111.759L115.219 175.318H116.691V185.5H115.537V177.764H115.438L112.256 185.5H111.142L107.96 177.764H107.861V185.5H106.708V175.318ZM119.163 175.318H120.376V183.332H120.475L126.043 175.318H127.237V185.5H126.004V177.506H125.904L120.356 185.5H119.163V175.318ZM129.704 185.5V175.318H130.937V179.852H136.366V175.318H137.599V185.5H136.366V180.946H130.937V185.5H129.704ZM140.067 175.318H141.28V183.332H141.379L146.948 175.318H148.141V185.5H146.908V177.506H146.808L141.26 185.5H140.067V175.318ZM158.801 178.5H157.568C157.495 178.145 157.368 177.834 157.185 177.565C157.006 177.297 156.788 177.071 156.529 176.889C156.274 176.704 155.991 176.564 155.679 176.472C155.367 176.379 155.043 176.332 154.705 176.332C154.088 176.332 153.53 176.488 153.029 176.8C152.532 177.111 152.136 177.57 151.841 178.177C151.549 178.783 151.403 179.527 151.403 180.409C151.403 181.291 151.549 182.035 151.841 182.641C152.136 183.248 152.532 183.707 153.029 184.018C153.53 184.33 154.088 184.486 154.705 184.486C155.043 184.486 155.367 184.439 155.679 184.347C155.991 184.254 156.274 184.116 156.529 183.934C156.788 183.748 157.006 183.521 157.185 183.253C157.368 182.981 157.495 182.67 157.568 182.318H158.801C158.708 182.839 158.539 183.304 158.294 183.715C158.049 184.126 157.744 184.476 157.379 184.764C157.015 185.049 156.605 185.266 156.151 185.415C155.701 185.565 155.218 185.639 154.705 185.639C153.836 185.639 153.064 185.427 152.388 185.003C151.712 184.579 151.18 183.975 150.792 183.193C150.404 182.411 150.21 181.483 150.21 180.409C150.21 179.335 150.404 178.407 150.792 177.625C151.18 176.843 151.712 176.24 152.388 175.815C153.064 175.391 153.836 175.179 154.705 175.179C155.218 175.179 155.701 175.254 156.151 175.403C156.605 175.552 157.015 175.771 157.379 176.059C157.744 176.344 158.049 176.692 158.294 177.103C158.539 177.511 158.708 177.976 158.801 178.5ZM160.237 176.412V175.318H167.873V176.412H164.671V185.5H163.438V176.412H160.237ZM169.776 185.5V175.318H173.216C174.015 175.318 174.668 175.462 175.175 175.751C175.685 176.036 176.063 176.422 176.309 176.909C176.554 177.396 176.676 177.94 176.676 178.54C176.676 179.14 176.554 179.685 176.309 180.175C176.067 180.666 175.692 181.057 175.185 181.349C174.678 181.637 174.028 181.781 173.236 181.781H170.77V180.688H173.196C173.743 180.688 174.182 180.593 174.514 180.404C174.845 180.215 175.086 179.96 175.235 179.638C175.387 179.314 175.463 178.947 175.463 178.54C175.463 178.132 175.387 177.768 175.235 177.446C175.086 177.125 174.844 176.873 174.509 176.69C174.174 176.505 173.73 176.412 173.176 176.412H171.009V185.5H169.776ZM178.041 185.5H176.749L180.487 175.318H181.76L185.499 185.5H184.206L181.163 176.929H181.084L178.041 185.5ZM178.518 181.523H183.729V182.616H178.518V181.523ZM185.338 176.412V175.318H192.975V176.412H189.773V185.5H188.54V176.412H185.338ZM203.045 180.409C203.045 181.483 202.851 182.411 202.463 183.193C202.075 183.975 201.543 184.579 200.867 185.003C200.191 185.427 199.419 185.639 198.55 185.639C197.682 185.639 196.91 185.427 196.233 185.003C195.557 184.579 195.025 183.975 194.638 183.193C194.25 182.411 194.056 181.483 194.056 180.409C194.056 179.335 194.25 178.407 194.638 177.625C195.025 176.843 195.557 176.24 196.233 175.815C196.91 175.391 197.682 175.179 198.55 175.179C199.419 175.179 200.191 175.391 200.867 175.815C201.543 176.24 202.075 176.843 202.463 177.625C202.851 178.407 203.045 179.335 203.045 180.409ZM201.851 180.409C201.851 179.527 201.704 178.783 201.409 178.177C201.117 177.57 200.721 177.111 200.221 176.8C199.724 176.488 199.167 176.332 198.55 176.332C197.934 176.332 197.375 176.488 196.875 176.8C196.378 177.111 195.982 177.57 195.687 178.177C195.395 178.783 195.249 179.527 195.249 180.409C195.249 181.291 195.395 182.035 195.687 182.641C195.982 183.248 196.378 183.707 196.875 184.018C197.375 184.33 197.934 184.486 198.55 184.486C199.167 184.486 199.724 184.33 200.221 184.018C200.721 183.707 201.117 183.248 201.409 182.641C201.704 182.035 201.851 181.291 201.851 180.409ZM205.118 185.5V175.318H208.558C209.357 175.318 210.01 175.462 210.517 175.751C211.027 176.036 211.405 176.422 211.65 176.909C211.896 177.396 212.018 177.94 212.018 178.54C212.018 179.14 211.896 179.685 211.65 180.175C211.408 180.666 211.034 181.057 210.527 181.349C210.02 181.637 209.37 181.781 208.578 181.781H206.112V180.688H208.538C209.085 180.688 209.524 180.593 209.856 180.404C210.187 180.215 210.427 179.96 210.577 179.638C210.729 179.314 210.805 178.947 210.805 178.54C210.805 178.132 210.729 177.768 210.577 177.446C210.427 177.125 210.185 176.873 209.851 176.69C209.516 176.505 209.072 176.412 208.518 176.412H206.351V185.5H205.118Z" fill="white"/>
</svg>
