<svg width="25" height="24" viewBox="0 0 25 24" fill="none" xmlns="http://www.w3.org/2000/svg">
<path d="M12.1417 0C5.50089 0 0.116699 5.373 0.116699 12C0.116699 18.627 5.50089 24 12.1417 24C18.7825 24 24.1667 18.627 24.1667 12C24.1667 5.373 18.7825 0 12.1417 0ZM15.3754 18.184C13.7821 18.086 10.6486 16.26 9.18857 14.62C7.73254 12.979 6.28654 9.657 6.38174 8.064C6.38174 8.064 8.11732 5.773 8.91398 5.819C9.71665 5.867 11.9633 8.395 11.1136 9.147C10.2718 9.894 9.47316 9.848 9.42606 10.641C9.38097 11.436 10.1285 12.282 10.874 13.124C11.6276 13.97 12.3752 14.809 13.1738 14.854C13.9705 14.904 14.0196 14.111 14.8613 13.359C15.7071 12.611 17.9578 15.143 17.9087 15.938C17.8646 16.73 15.3754 18.184 15.3754 18.184Z" fill="white"/>
</svg>
